After a 16-year absence, Claire and Matt Thompson are reintroduced to The Jensen Project - a secret community of geniuses conducting advanced underground research to solve the world's most difficult problems.
 
http://www.starshare.ro/bitbucket/The.Jensen.Project.2010.DVDRip.XviD.Ac3.Feel-Free.avi_thumbs_%5B2010.09.09_20.35.58%5D.jpg


Genre:Action | Adventure | Family | Fantasy | Sci-Fi
Language: English
  http://www.imdb.com/title/tt1678053/
SourceVD

General
Complete name :The.Jensen.Project.2010.DVDRip.XviD.Ac3.Feel-Free
Format : AVI
Format/Info : Audio Video Interleave
File size : 812 MiB
Duration : 1h 25mn
Overall bit rate : 1 323 Kbps
Video #0
Codec ID : XVID
Codec ID/Hint : XviD
Duration : 1h 25mn
Bit rate : 993 Kbps
Width : 640 pixels
Height : 352 pixels
Display aspect ratio : 16:9
Frame rate : 23.976 fps
Resolution : 24 bits
Colorimetry : 4:2:0
Scan type : Progressive
Bits/(Pixel*Frame) : 0.184
Stream size : 610 MiB (75%)
Writing library : XviD 1.2.0.dev47 (UTC 2006-11-01)
Audio #1
ID : 1
Format : AC-3
Format/Info : Audio Coding 3
Codec ID : 2000
Duration : 1h 25mn
Bit rate mode : Constant
Bit rate : 320 Kbps
Channel(s) : 6 channels
Channel positions : Front: L C R, Surround: L R, LFE
Sampling rate : 48.0 KHz
Stream size : 197 MiB (24%)
Alignment : Split accross interleaves
Interleave, duration : 42 ms (1.00 video frame)
Interleave, preload duration : 500 ms